<?xml version="1.0" encoding="UTF-8" standalone="no"?>
<!DOCTYPE svg PUBLIC "-//W3C//DTD SVG 1.1//EN" "http://www.w3.org/Graphics/SVG/1.1/DTD/svg11.dtd">
<svg width="100%" height="100%" viewBox="0 0 23 37" version="1.1" xmlns="http://www.w3.org/2000/svg" xmlns:xlink="http://www.w3.org/1999/xlink" xml:space="preserve" xmlns:serif="http://www.serif.com/" style="fill-rule:evenodd;clip-rule:evenodd;stroke-linejoin:round;stroke-miterlimit:2;">
    <g transform="matrix(1,0,0,1,-27,-29)">
        <g transform="matrix(1,0,0,1,-11.6498,-2.48999)">
            <path d="M42.706,63.979C41.467,64.827 39.973,64.849 39.22,63.974C38.393,63.011 38.773,61.324 40.07,60.209C40.177,60.117 40.286,60.032 40.398,59.954C38.743,55.63 38.934,51.169 40.952,46.921C40.46,46.548 40.022,46.002 39.723,45.331C39,43.712 39.355,41.978 40.515,41.46C41.409,41.061 42.522,41.501 43.316,42.465C44.181,40.961 45.28,39.376 46,39.54C45.537,38.56 45.285,38.494 45.26,37.41C45.262,34.996 46.368,33.71 48.26,32.21C49.26,31.412 50.69,31.412 51.69,32.21C53.573,33.717 54.676,34.998 54.69,37.41C54.693,38.487 54.472,38.553 54.04,39.54C54.745,39.379 55.804,40.898 56.65,42.374C57.646,41.38 58.992,41.066 59.882,41.699C60.917,42.435 60.944,44.176 59.943,45.583C59.643,46.005 59.284,46.35 58.9,46.606C61.048,50.889 61.326,55.404 59.712,59.791C60.044,60.047 60.348,60.376 60.601,60.767C61.519,62.19 61.398,63.904 60.331,64.593C59.472,65.147 58.26,64.869 57.341,63.998C56.498,64.994 55.264,66.263 54.21,66.59C53.138,66.922 51.435,67.563 49.82,67.553C48.301,67.544 46.869,66.903 45.86,66.59C44.798,66.261 43.552,64.979 42.706,63.979Z"/>
        </g>
    </g>
</svg>
